# xmcd
#
# Track frame offsets:
#	150
#	14955
#	33063
#	44943
#	57473
#	80319
#	99921
#	112670
#	124356
#	144581
#	158180
#	172704
#	190891
#	205890
#	222355
#	239502
#	255218
#	274487
#	287046
#	302344
#	318207
#	339152
#
# Disc length: 4700 seconds
#
# Revision: 0
# Processed by: cddbd v1.5.2PL0 Copyright (c) Steve Scherf et al.
# Submitted via: audiograbber 1.83.01
#
DISCID=37125a16
DTITLE=Hank H‰berle - Geburtstagsliedle
DYEAR=2009
DGENRE=
TTITLE0=A so a B‰bb a so a K‰s
TTITLE1=Bin i gsund
TTITLE2=Dr Apratratra
TTITLE3=Drecks‰ck, scharfe weiber und
TTITLE4=Dronda am Neckar
TTITLE5=Edesmol dr gleiche Scheiﬂ
TTITLE6=Flichtlengswalzer
TTITLE7=Geistertruck am Aichelberg
TTITLE8=He du M‰dle. I mog de fei
TTITLE9=Henner koine Maultascha do
TTITLE10=Hoim ens Schwobaland
TTITLE11=Ir reited weider
TTITLE12=Liaber tue i Bullareita
TTITLE13=Rauschgiftbruder
TTITLE14=Rot wie Blut, Weiﬂ wie Schnee
TTITLE15=Rotweiﬂ zuckt a Blitz vom Hemm
TTITLE16=Schwobahymne
TTITLE17=Shwardamagaboogie
TTITLE18=Uff mein VFB lass i nix komma
TTITLE19=Verschm‰hte Liebe tuat weh
TTITLE20=Wer dappt uff meiner Beehne ro
TTITLE21=Zwei Zimmer, Wohn, Klo
EXTD=Zum Geburtstag alles Schw‰bisch Gute :) ! -- 30.12.09
EXTT0=
EXTT1=
EXTT2=
EXTT3=
EXTT4=
EXTT5=
EXTT6=
EXTT7=
EXTT8=
EXTT9=
EXTT10=
EXTT11=
EXTT12=
EXTT13=
EXTT14=
EXTT15=
EXTT16=
EXTT17=
EXTT18=
EXTT19=
EXTT20=
EXTT21=
PLAYORDER=
